<svg width="12" height="12" viewBox="0 0 12 12" fill="none" xmlns="http://www.w3.org/2000/svg">
<g id="Star" clip-path="url(#clip0_6_9470)">
<path id="Star_2" d="M5.44601 1.63194C5.65096 1.13917 6.34904 1.13917 6.55399 1.63195L7.44628 3.77727C7.53269 3.98501 7.72805 4.12695 7.95233 4.14493L10.2684 4.33061C10.8004 4.37325 11.0161 5.03716 10.6108 5.38436L8.84618 6.89592C8.6753 7.04229 8.60068 7.27196 8.65288 7.49081L9.192 9.75089C9.31583 10.27 8.75108 10.6803 8.29562 10.4021L6.31275 9.19102C6.12074 9.07374 5.87926 9.07374 5.68725 9.19102L3.70438 10.4021C3.24892 10.6803 2.68417 10.27 2.808 9.75089L3.34711 7.49081C3.39932 7.27196 3.3247 7.04229 3.15382 6.89592L1.38923 5.38436C0.983912 5.03716 1.19963 4.37325 1.73162 4.33061L4.04767 4.14493C4.27195 4.12695 4.46731 3.98501 4.55372 3.77727L5.44601 1.63194Z" fill="#FDB022"/>
</g>
<defs>
<clipPath id="clip0_6_9470">
<rect width="12" height="12" fill="white"/>
</clipPath>
</defs>
</svg>
